# 3ds Max Wavefront OBJ Exporter v0.97b - (c)2007 guruware
# File Created: 07.05.2013 23:31:26

mtllib 20783_Stellated_Truncated_Hexahedron_V1.mtl

#
# object 20783_Stellated_Truncated_Hexahedron
#

v  -1.8975 -1.8975 2.9720
v  0.0000 -1.8975 2.9720
v  0.0000 -3.0507 2.9720
v  -1.8975 -4.8692 2.9720
v  1.8975 -1.8975 2.9720
v  1.8975 -1.8975 4.8695
v  1.8975 -3.0507 4.8695
v  1.8975 -4.8692 2.9720
v  1.8975 -1.8975 6.7670
v  0.0000 -1.8975 6.7670
v  0.0000 -3.0507 6.7670
v  1.8975 -4.8692 6.7670
v  -1.8975 -1.8975 6.7670
v  -1.8975 -1.8975 4.8695
v  -1.8975 -3.0507 4.8695
v  -1.8975 -4.8692 6.7670
v  0.0000 -2.3613 6.0081
v  1.1386 -2.3613 4.8695
v  -1.1386 -2.3613 4.8695
v  0.0000 -2.3613 3.7309
v  -4.8692 -1.8975 2.9720
v  -3.0507 -0.0000 2.9720
v  -1.8975 -0.0000 2.9720
v  -1.8975 1.8975 2.9720
v  -4.8692 1.8975 2.9720
v  -3.0507 1.8975 4.8695
v  -1.8975 1.8975 4.8695
v  -1.8975 1.8975 6.7670
v  -4.8692 1.8975 6.7670
v  -3.0507 -0.0000 6.7670
v  -1.8975 -0.0000 6.7670
v  -4.8692 -1.8975 6.7670
v  -3.0507 -1.8975 4.8695
v  -2.3613 1.1386 4.8695
v  -2.3613 -0.0000 6.0081
v  -2.3613 -1.1386 4.8695
v  -2.3613 -0.0000 3.7309
v  1.8975 1.8975 2.9720
v  4.8692 1.8975 2.9720
v  3.0507 -0.0000 2.9720
v  1.8975 -0.0000 2.9720
v  4.8692 -1.8975 2.9720
v  3.0507 -1.8975 4.8695
v  4.8692 -1.8975 6.7670
v  3.0507 -0.0000 6.7670
v  1.8975 -0.0000 6.7670
v  1.8975 1.8975 6.7670
v  4.8692 1.8975 6.7670
v  3.0507 1.8975 4.8695
v  1.8975 1.8975 4.8695
v  2.3613 -1.1386 4.8695
v  2.3613 -0.0000 6.0081
v  2.3613 1.1386 4.8695
v  2.3613 -0.0000 3.7309
v  0.0000 1.8975 2.9720
v  0.0000 3.0507 2.9720
v  1.8975 4.8692 2.9720
v  -1.8975 3.0507 4.8695
v  -1.8975 4.8692 2.9720
v  0.0000 1.8975 6.7670
v  0.0000 3.0507 6.7670
v  -1.8975 4.8692 6.7670
v  1.8975 3.0507 4.8695
v  1.8975 4.8692 6.7670
v  0.0000 2.3613 6.0081
v  -1.1386 2.3613 4.8695
v  1.1386 2.3613 4.8695
v  0.0000 2.3613 3.7309
v  -1.8975 -1.8975 9.7387
v  -1.8975 -0.0000 7.9202
v  -1.8975 1.8975 9.7387
v  0.0000 1.8975 7.9202
v  1.8975 1.8975 9.7387
v  1.8975 -0.0000 7.9202
v  1.8975 -1.8975 9.7387
v  0.0000 -1.8975 7.9202
v  0.0000 1.1386 7.2308
v  1.1386 -0.0000 7.2308
v  0.0000 -1.1386 7.2308
v  -1.1386 -0.0000 7.2308
v  1.8975 -1.8975 0.0003
v  1.8975 -0.0000 1.8188
v  1.8975 1.8975 0.0003
v  0.0000 1.8975 1.8188
v  -1.8975 1.8975 0.0003
v  -1.8975 -0.0000 1.8188
v  -1.8975 -1.8975 0.0003
v  0.0000 -1.8975 1.8188
v  0.0000 1.1386 2.5082
v  -1.1386 -0.0000 2.5082
v  0.0000 -1.1386 2.5082
v  1.1386 -0.0000 2.5082
# 92 vertices

vn -0.0000 0.0000 -1.0000
vn 1.0000 0.0000 0.0000
vn 0.0000 0.0000 1.0000
vn -1.0000 0.0000 0.0000
vn -1.0000 0.0000 -0.0000
vn 0.0000 0.0000 -1.0000
vn 0.5690 -0.5937 0.5690
vn 0.5636 -0.6040 0.5636
vn -0.5636 -0.6040 -0.5636
vn -0.5580 -0.6142 -0.5580
vn 0.5636 -0.6040 -0.5636
vn 0.5580 -0.6142 -0.5580
vn -0.5636 -0.6040 0.5636
vn -0.5580 -0.6142 0.5580
vn 0.0000 -1.0000 0.0000
vn 0.5580 -0.6142 0.5580
vn 0.5690 -0.5937 -0.5690
vn -0.5690 -0.5937 -0.5690
vn -0.5690 -0.5937 0.5690
vn 0.0000 -0.0000 -1.0000
vn -0.0000 1.0000 -0.0000
vn 0.0000 1.0000 -0.0000
vn -0.5937 0.5690 0.5690
vn -0.6040 0.5636 0.5636
vn -0.6040 -0.5636 -0.5636
vn -0.6142 -0.5580 -0.5580
vn -0.6040 0.5636 -0.5636
vn -0.6142 0.5580 -0.5580
vn -0.6040 -0.5636 0.5636
vn -0.6142 -0.5580 0.5580
vn -1.0000 -0.0000 0.0000
vn -1.0000 -0.0000 -0.0000
vn -0.6142 0.5580 0.5580
vn -0.5937 0.5690 -0.5690
vn -0.5937 -0.5690 -0.5690
vn -0.5937 -0.5690 0.5690
vn 0.0000 1.0000 0.0000
vn 0.5937 -0.5690 0.5690
vn 0.6040 -0.5636 0.5636
vn 0.6040 0.5636 -0.5636
vn 0.6142 0.5580 -0.5580
vn 0.6040 -0.5636 -0.5636
vn 0.6142 -0.5580 -0.5580
vn 0.6040 0.5636 0.5636
vn 0.6142 0.5580 0.5580
vn 0.6142 -0.5580 0.5580
vn 0.5937 -0.5690 -0.5690
vn 0.5937 0.5690 -0.5690
vn 0.5937 0.5690 0.5690
vn -0.0000 -0.0000 -1.0000
vn 1.0000 -0.0000 0.0000
vn 1.0000 -0.0000 -0.0000
vn -0.5690 0.5937 0.5690
vn -0.5636 0.6040 0.5636
vn 0.5636 0.6040 -0.5636
vn 0.5580 0.6142 -0.5580
vn -0.5636 0.6040 -0.5636
vn -0.5580 0.6142 -0.5580
vn 0.5636 0.6040 0.5636
vn 0.5580 0.6142 0.5580
vn -0.5580 0.6142 0.5580
vn -0.5690 0.5937 -0.5690
vn 0.5690 0.5937 -0.5690
vn 0.5690 0.5937 0.5690
vn -0.0000 1.0000 0.0000
vn 0.0000 -1.0000 -0.0000
vn -0.0000 -1.0000 -0.0000
vn 0.5690 0.5690 0.5937
vn 0.5636 0.5636 0.6040
vn -0.5636 -0.5636 0.6040
vn -0.5580 -0.5580 0.6142
vn -0.5636 0.5636 0.6040
vn -0.5580 0.5580 0.6142
vn 0.5636 -0.5636 0.6040
vn 0.5580 -0.5580 0.6142
vn -0.0000 -0.0000 1.0000
vn 0.0000 -0.0000 1.0000
vn 0.5580 0.5580 0.6142
vn -0.5690 0.5690 0.5937
vn -0.5690 -0.5690 0.5937
vn 0.5690 -0.5690 0.5937
vn -0.0000 -1.0000 0.0000
vn 1.0000 0.0000 -0.0000
vn -0.5690 0.5690 -0.5937
vn -0.5636 0.5636 -0.6040
vn 0.5636 -0.5636 -0.6040
vn 0.5580 -0.5580 -0.6142
vn 0.5636 0.5636 -0.6040
vn 0.5580 0.5580 -0.6142
vn -0.5636 -0.5636 -0.6040
vn -0.5580 -0.5580 -0.6142
vn -0.5580 0.5580 -0.6142
vn 0.5690 0.5690 -0.5937
vn 0.5690 -0.5690 -0.5937
vn -0.5690 -0.5690 -0.5937
# 95 vertex normals

vt 0.0000 0.0000 0.0000
vt 0.5000 0.0000 0.0000
vt 1.0000 0.0000 0.0000
vt 1.0000 0.5000 0.0000
vt 1.0000 1.0000 0.0000
vt 0.5000 1.0000 0.0000
vt 0.0000 1.0000 0.0000
vt 0.0000 0.5000 0.0000
vt 0.5000 0.7461 0.0000
vt 0.7461 0.5000 0.0000
vt 0.2539 0.5000 0.0000
vt 0.5000 0.2539 0.0000
# 12 texture coords

g 20783_Stellated_Truncated_Hexahedron
usemtl 20783_Stellated_Truncated_Hexahedron
s 1
f 1/1/1 2/2/1 3/2/1 4/1/1 
s 2
f 5/3/2 6/4/2 7/4/2 8/3/2 
s 1
f 9/5/3 10/6/3 11/6/3 12/5/3 
s 2
f 13/7/4 14/8/5 15/8/5 16/7/4 
f 1/1/5 4/1/5 15/8/5 14/8/5 
s 1
f 13/7/3 16/7/3 11/6/3 10/6/3 
s 2
f 9/5/2 12/5/2 7/4/2 6/4/2 
s 1
f 5/3/1 8/3/6 3/2/1 2/2/1 
s 4
f 4/1/7 3/2/8 15/8/8 
f 11/6/9 17/9/10 18/10/10 7/4/9 
s 8
f 15/8/11 19/11/12 17/9/12 11/6/11 
f 7/4/13 18/10/14 20/12/14 3/2/13 
s 1
f 18/10/15 17/9/15 19/11/15 20/12/15 
s 4
f 20/12/16 19/11/16 15/8/8 3/2/8 
s 8
f 11/6/11 16/7/17 15/8/11 
s 4
f 7/4/9 12/5/18 11/6/9 
s 8
f 3/2/13 8/3/19 7/4/13 
s 4
f 1/1/20 21/1/20 22/2/6 23/2/6 
s 1
f 24/3/21 25/3/22 26/4/21 27/4/21 
s 4
f 28/5/3 29/5/3 30/6/3 31/6/3 
s 8
f 13/7/15 32/7/15 33/8/15 14/8/15 
f 1/1/15 14/8/15 33/8/15 21/1/15 
s 4
f 13/7/3 31/6/3 30/6/3 32/7/3 
s 1
f 28/5/21 27/4/21 26/4/21 29/5/21 
s 4
f 24/3/6 23/2/6 22/2/6 25/3/6 
s 1
f 21/1/23 33/8/24 22/2/24 
s 2
f 30/6/25 26/4/25 34/10/26 35/9/26 
s 16
f 33/8/27 30/6/27 35/9/28 36/11/28 
s 8
f 26/4/29 22/2/29 37/12/30 34/10/30 
s 4
f 34/10/31 37/12/32 36/11/31 35/9/31 
s 1
f 37/12/33 22/2/24 33/8/24 36/11/33 
s 16
f 30/6/27 33/8/27 32/7/34 
s 2
f 26/4/25 30/6/25 29/5/35 
s 8
f 22/2/29 26/4/29 25/3/36 
s 4
f 38/1/6 39/1/6 40/2/6 41/2/6 
s 8
f 5/3/15 42/3/15 43/4/15 6/4/15 
s 4
f 9/5/3 44/5/3 45/6/3 46/6/3 
s 1
f 47/7/37 48/7/37 49/8/21 50/8/22 
f 38/1/21 50/8/22 49/8/21 39/1/21 
s 4
f 47/7/3 46/6/3 45/6/3 48/7/3 
s 8
f 9/5/15 6/4/15 43/4/15 44/5/15 
s 4
f 5/3/6 41/2/6 40/2/6 42/3/6 
s 2
f 39/1/38 49/8/39 40/2/39 
s 1
f 45/6/40 43/4/40 51/10/41 52/9/41 
s 8
f 49/8/42 45/6/42 52/9/43 53/11/43 
s 16
f 43/4/44 40/2/44 54/12/45 51/10/45 
s 4
f 51/10/2 54/12/2 53/11/2 52/9/2 
s 2
f 54/12/46 40/2/39 49/8/39 53/11/46 
s 8
f 45/6/42 49/8/42 48/7/47 
s 1
f 43/4/40 45/6/40 44/5/48 
s 16
f 40/2/44 43/4/44 42/3/49 
s 2
f 38/1/50 55/2/50 56/2/50 57/1/6 
s 8
f 24/3/5 27/4/5 58/4/5 59/3/4 
s 2
f 28/5/3 60/6/3 61/6/3 62/5/3 
s 8
f 47/7/51 50/8/51 63/8/51 64/7/51 
f 38/1/52 57/1/52 63/8/51 50/8/51 
s 2
f 47/7/3 64/7/3 61/6/3 60/6/3 
s 8
f 28/5/5 62/5/5 58/4/5 27/4/5 
s 2
f 24/3/50 59/3/50 56/2/50 55/2/50 
s 1
f 57/1/53 56/2/54 63/8/54 
f 61/6/55 65/9/56 66/10/56 58/4/55 
s 4
f 63/8/57 67/11/58 65/9/58 61/6/57 
f 58/4/59 66/10/60 68/12/60 56/2/59 
s 2
f 66/10/37 65/9/37 67/11/37 68/12/22 
s 1
f 68/12/61 67/11/61 63/8/54 56/2/54 
s 4
f 61/6/57 64/7/62 63/8/57 
s 1
f 58/4/55 62/5/63 61/6/55 
s 4
f 56/2/59 59/3/64 58/4/59 
s 16
f 13/1/4 69/1/4 70/2/4 31/2/4 
s 32
f 28/3/37 71/3/37 72/4/65 60/4/37 
s 16
f 47/5/51 73/5/51 74/6/51 46/6/2 
s 32
f 9/7/66 75/7/66 76/8/66 10/8/66 
f 13/1/67 10/8/66 76/8/66 69/1/67 
s 16
f 9/7/2 46/6/2 74/6/51 75/7/2 
s 32
f 47/5/65 60/4/37 72/4/65 73/5/65 
s 16
f 28/3/4 31/2/4 70/2/4 71/3/4 
s 1
f 69/1/68 76/8/69 70/2/69 
f 74/6/70 72/4/70 77/10/71 78/9/71 
s 2
f 76/8/72 74/6/72 78/9/73 79/11/73 
f 72/4/74 70/2/74 80/12/75 77/10/75 
s 4
f 77/10/76 80/12/76 79/11/76 78/9/77 
s 1
f 80/12/78 70/2/69 76/8/69 79/11/78 
s 2
f 74/6/72 76/8/72 75/7/79 
s 1
f 72/4/70 74/6/70 73/5/80 
s 2
f 70/2/74 72/4/74 71/3/81 
s 16
f 5/1/52 81/1/52 82/2/52 41/2/2 
s 32
f 38/3/21 83/3/65 84/4/21 55/4/21 
s 16
f 24/5/31 85/5/31 86/6/4 23/6/5 
s 32
f 1/7/82 87/7/82 88/8/15 2/8/15 
f 5/1/15 2/8/15 88/8/15 81/1/15 
s 16
f 1/7/4 23/6/5 86/6/4 87/7/4 
s 32
f 24/5/22 55/4/21 84/4/21 85/5/22 
s 16
f 38/3/83 41/2/2 82/2/52 83/3/83 
s 1
f 81/1/84 88/8/85 82/2/85 
f 86/6/86 84/4/86 89/10/87 90/9/87 
s 2
f 88/8/88 86/6/88 90/9/89 91/11/89 
f 84/4/90 82/2/90 92/12/91 89/10/91 
s 4
f 89/10/20 92/12/20 91/11/50 90/9/50 
s 1
f 92/12/92 82/2/85 88/8/85 91/11/92 
s 2
f 86/6/88 88/8/88 87/7/93 
s 1
f 84/4/86 86/6/86 85/5/94 
s 2
f 82/2/90 84/4/90 83/3/95 
# 78 polygons - 24 triangles

